<?xml version="1.0" encoding="UTF-8"?>
<svg id="Layer_1" data-name="Layer 1" xmlns="http://www.w3.org/2000/svg" viewBox="0 0 860.87 758.58">
  <defs>
    <style>
      .cls-1 {
        fill: none;
        stroke: #000;
        stroke-linecap: round;
        stroke-miterlimit: 10;
        stroke-width: 14px;
      }
    </style>
  </defs>
  <path class="cls-1" d="M853.87,660.47c-221.99,122.23-111.85-376.96-48.14-381.87,44.77-3.45-50.48,352.14-159.49,401.07-109.01,48.93,58.25-273.56-38.21-273.56s-214.35,282.64-174.37,278.62c25.08-2.52,57.82-31.57,81.66-341.38,34.19-444.27,129.29-372.66,58.91-214.01-46.38,104.56-189.68,123.85-239.71,120.85-55.66-3.33-42.94-43.87.53-36.98,208.19,32.98,142.68,477.61-96.9,477.61s-197.16-356.45-10.28-440.94c142.49-64.42,26.64,290.09-220.88,376.1"/>
  <path class="cls-1" d="M713.58,707.01c-32.67,2.97-59.68,45.54-14.14,44.55,45.54-.99,39.06-53.7,16.06-41.75,0,0-6.26,4.31-6.26,13.06"/>
</svg>