<?xml version="1.0" encoding="UTF-8"?>
<svg id="Layer_1" data-name="Layer 1" xmlns="http://www.w3.org/2000/svg" version="1.1" viewBox="0 0 1254.8 947.3">
  <defs>
    <style>
      .cls-1 {
        fill: none;
        stroke: #000;
        stroke-linecap: round;
        stroke-miterlimit: 10;
        stroke-width: 60px;
      }
    </style>
  </defs>
  <path class="cls-1" d="M1110.4,741.9c-250.8,128-187.6-470.2-51.7-492.6,169.6-28-60.6,480.1-215.5,524.7-139.6,40.3,107.8-287-14.6-287.1-96.5,0-335,253.4-262.4,297.9,61.1,37.4,97.7-80.7,115.5-344.4,35.7-527.8,241.2-380.8,146.5-253.1s-240.7,165.5-348.6,165.9-68.1-129.9,7.9-116.2c152.5,27.5,119.2,568.1-197.7,541.8-238.8-19.8-111-469.3,3.7-500.5,107.9-29.4,84.5,385.8-181.8,458.1"/>
  <path class="cls-1" d="M948.6,814.3c-62.4,5.7-110.2,85.7-23.3,83.8,86.9-1.9,70.8-101.3,26.9-78.5"/>
</svg>